<svg width="179" height="157" viewBox="0 0 179 157" fill="none" xmlns="http://www.w3.org/2000/svg">
<path d="M128 1.26658C126.933 1.66658 122.133 4.86658 117.333 8.46658C112.533 11.9332 106.933 15.2666 104.933 15.6666C100.266 16.8666 98.6665 19.3999 103.2 18.3332C105.066 17.9332 108.133 17.3999 109.866 16.9999C111.733 16.5999 116.133 14.4666 119.733 12.1999C128.133 6.99992 135.2 5.39992 141.733 7.13325C147.466 8.59992 152.133 14.8666 150.933 19.2666C150.266 22.0666 150.4 22.0666 153.466 19.9332C162.133 13.7999 175.866 20.7332 174.266 30.3332C172.4 41.5333 162.266 47.1333 151.333 42.9999C148 41.7999 148 41.5333 150.133 38.3333C152.8 34.3333 151.6 34.0666 147.066 37.6666C144.133 39.9333 138.666 41.3999 138.666 39.9333C138.666 39.6666 139.6 37.5333 140.8 35.2666C141.866 32.8666 142.666 29.9332 142.266 28.5999C141.866 26.7332 141.466 26.9999 140.4 29.6666C138.8 33.3999 135.2 36.8666 131.466 38.1999C129.466 38.8666 129.066 38.4666 129.6 35.6666C130 33.7999 129.733 32.3333 129.2 32.3333C128.533 32.3333 128 32.8666 128 33.5333C128 34.1999 126 36.0666 123.466 37.5333C117.333 41.3999 109.6 41.1333 103.466 36.9999C97.8665 33.2666 97.0665 34.7333 102.133 39.3999L105.6 42.5999L102.533 44.8666C90.2665 53.3999 75.9998 30.9999 87.0665 20.5999C88.6665 18.9999 94.2665 16.4666 99.3331 14.8666C104.533 13.3999 109.6 11.1332 110.666 10.0666C112.4 8.19992 112.4 8.06658 110 8.99992C108.533 9.53325 103.6 10.8666 98.9331 11.7999C87.9998 14.1999 83.1998 16.8666 79.9998 22.0666C75.1998 29.9332 77.3331 40.7333 85.0665 47.2666C90.3998 51.7999 98.6665 53.2666 102.933 50.5999C111.733 44.8666 135.6 42.0666 143.466 45.7999C146.666 47.3999 147.333 48.5999 147.733 53.5333C148.133 59.1333 148 59.2666 145.066 58.4666C143.333 57.9333 137.466 57.2666 132 56.9999C123.466 56.4666 122.8 56.5999 127.333 57.6666C135.466 59.6666 144.266 63.1333 148.266 65.7999C150.133 67.2666 152.133 68.3333 152.666 68.3333C153.2 68.3333 153.2 63.7999 152.666 58.3333L151.733 48.3333H158.133C169.066 48.3333 176.8 41.7999 178.266 31.2666C179.733 20.5999 172.266 12.8666 161.6 13.9332C155.6 14.4666 155.2 14.3332 153.333 10.4666C150.266 4.33325 145.066 1.26658 137.066 0.866582C133.2 0.599915 129.066 0.733248 128 1.26658Z" fill="#F1A404"/>
<path d="M54.9333 12.0666C52.1333 13.9333 50.9333 20.8666 52.1333 27.6666C53.5999 35.6666 58.7999 42.7333 63.5999 43.2666C66.5333 43.5333 67.4666 44.7333 69.3333 50.1999C70.5333 53.9333 72.2666 57.1333 73.0666 57.3999C75.3333 58.0666 75.0666 56.1999 71.8666 49.1333C69.4666 43.5333 69.3333 42.7333 71.1999 40.0666C72.3999 38.4666 73.3333 35.3999 73.3333 33.2666C73.3333 27.6666 67.1999 16.5999 62.2666 13.6666C57.4666 10.7333 57.3333 10.5999 54.9333 12.0666Z" fill="#F1A404"/>
<path d="M40.0002 18.7333C40.0002 19.2666 42.1335 25.1333 44.8002 31.5333C47.3335 38.0666 49.2002 43.6666 48.8002 43.9333C48.4002 44.3333 47.3335 42.6 46.2669 40.2C45.3335 37.6666 43.0669 32.2 41.3335 27.9333C39.6002 23.8 37.7335 20.3333 37.2002 20.3333C36.6669 20.3333 38.0002 24.7333 40.1335 29.9333C46.4002 45 46.6669 45.6666 45.4669 45.6666C44.9335 45.6666 42.1335 39.9333 39.3335 33C36.5335 25.9333 34.0002 20.4666 33.6002 20.8666C33.3335 21.2666 35.2002 27 37.8669 33.8C40.5335 40.4666 42.5335 46.3333 42.1335 46.6C41.3335 47.4 36.0002 35.9333 33.4669 27.9333C32.5335 25.2666 31.2002 23 30.6669 23C29.6002 23 31.6002 29 38.2669 46.0666C39.8669 50.2 42.2669 53.2666 44.9335 55C47.8669 56.7333 49.7335 59.2666 50.8002 63C52.5335 68.8666 56.0002 73 56.0002 69.1333C56.0002 67.9333 54.8002 64.4666 53.3335 61.5333C50.9335 57 50.8002 55.5333 52.1335 51.8C53.6002 47.9333 53.2002 46.2 47.3335 32.6C41.6002 18.8666 40.0002 15.9333 40.0002 18.7333Z" fill="#F1A404"/>
<path d="M31.3337 53.8C30.1337 56.0666 29.467 58.3333 30.0003 58.7333C31.067 59.8 35.867 53.6666 36.0003 51.2666C36.0003 48.2 33.467 49.6666 31.3337 53.8Z" fill="#F1A404"/>
<path d="M34.9345 57.8C32.4012 61.8 33.8679 62.3333 36.5345 58.3333C37.7345 56.4667 38.2679 55 37.7345 55C37.0679 55 35.8679 56.2 34.9345 57.8Z" fill="#F1A404"/>
<path d="M101.6 61.1333C96.9337 64.4666 97.867 70.4666 103.6 73.5333C107.2 75.3999 121.334 75.5333 121.334 73.6666C121.334 72.8666 118.4 72.3333 114.8 72.3333C107.6 72.3333 103.067 69.2666 106.8 66.8666C109.467 65.1333 114.934 65.3999 127.6 67.7999C133.734 68.8666 139.467 69.5333 140.4 69.2666C142.267 68.5999 143.067 68.8666 124.934 63.1333C110.267 58.4666 105.867 58.0666 101.6 61.1333Z" fill="#F1A404"/>
<path d="M17.6003 62.9999C-0.399674 74.0666 -6.66634 121.667 10.0003 121.667C12.667 121.667 13.3337 122.333 13.3337 124.733C13.3337 129.533 14.4003 129.8 21.467 127C45.2003 117.533 84.0003 111.267 131.067 109.133C142.667 108.6 144 108.733 144 110.867C144 116.867 151.2 118.067 156 113C157.734 111.133 160.534 109.667 162.267 109.667C165.734 109.667 166.267 107.667 163.334 105.933C160 104.067 164.8 92.9999 171.867 86.0666C178.534 79.7999 178.534 76.9999 171.867 81.6666C168 84.4666 167.734 84.4666 168.4 82.1999C170.8 73.9333 170.8 70.9999 168.8 70.1999C167.6 69.7999 165.867 70.0666 164.934 70.7333C164 71.5333 161.867 71.9333 160.134 71.3999C155.867 70.3333 151.2 75.2666 147.867 84.5999C145.2 91.7999 142.134 96.1999 140.667 94.7333C140.267 94.4666 140.934 90.8666 141.867 86.8666C143.2 81.7999 143.334 79.1333 142.4 78.0666C140.267 75.5333 138.534 75.9333 134.4 79.9333L130.534 83.5333L130.934 80.3333C131.467 75.3999 127.067 75.1333 125.2 79.9333C121.334 89.6666 117.2 97.6666 116 97.6666C114.134 97.6666 114.267 94.9999 116.667 88.1999C118 84.5999 118.267 82.0666 117.467 81.2666C115.334 79.1333 112.267 81.2666 111.334 85.5333C110.267 90.4666 108 89.6666 108 84.3333C108 80.0666 104.667 78.0666 101.734 80.5999C100.134 81.9333 100 81.5333 100.667 78.5999C101.467 75.5333 101.2 74.9999 98.9337 74.9999C96.8003 74.9999 95.6003 76.8666 93.3337 83.7999C90.1337 93.2666 83.3337 103.4 79.467 104.067C77.6003 104.467 77.2003 103.8 77.6003 100.733C77.867 98.0666 78.8003 96.8666 81.067 96.5999C87.2003 95.6666 91.867 82.7333 87.467 78.9999C83.6003 75.9333 79.7337 78.0666 75.467 85.6666C72.267 91.5333 71.3337 94.5999 71.3337 100.6C71.3337 105.8 70.8003 108.333 69.7337 108.333C65.067 108.333 67.3337 89.2666 73.467 77.2666C75.867 72.5999 76.667 72.1999 80.667 72.5999C85.867 72.9999 87.067 70.9999 82.8003 68.9999C81.3337 68.3333 80.0003 66.5999 80.0003 65.2666C80.0003 61.2666 75.867 60.8666 72.8003 64.5999C71.2003 66.4666 68.0003 68.4666 65.7337 68.9999C60.8003 69.9333 59.467 71.5333 60.5337 74.4666C61.2003 76.0666 61.867 76.1999 64.1337 74.9999C65.6003 74.0666 67.067 73.6666 67.467 73.9333C68.9337 75.5333 56.667 101.667 54.4003 101.667C52.8003 101.667 53.067 97.2666 55.3337 90.8666C56.5337 87.6666 57.067 84.3333 56.8003 83.3999C55.867 80.9999 52.1337 81.2666 51.2003 83.6666C50.5337 85.2666 49.2003 85.5333 46.0003 84.8666C41.2003 84.0666 40.4003 84.8666 31.6003 100.467C27.2003 108.2 18.267 116.333 14.267 116.333C7.86699 116.333 6.26699 105.933 10.4003 90.0666C14.5337 74.4666 21.6003 64.0666 25.6003 68.0666C26.9337 69.3999 26.8003 71.9333 24.8003 80.7333C21.3337 96.3333 21.467 96.9999 25.3337 96.9999C28.267 96.9999 28.8003 96.0666 30.4003 89.6666C32.667 79.6666 31.867 66.5999 28.8003 63.1333C25.6003 59.6666 23.2003 59.6666 17.6003 62.9999ZM158.8 81.2666C156.4 86.1999 152 91.1333 152 89.1333C152 87.5333 156.267 79.7999 158.4 77.2666C161.6 73.6666 161.734 75.5333 158.8 81.2666ZM82.5337 90.4666C80.1337 93.3999 79.6003 91.9333 81.6003 87.5333C82.9337 84.7333 83.467 84.3333 83.7337 86.1999C84.0003 87.3999 83.467 89.3999 82.5337 90.4666ZM160.534 88.5999C160 90.3333 156.667 94.7333 152.934 98.5999L146.267 105.667H120.4H94.5337L95.3337 102.6C95.867 101 97.467 96.9999 98.9337 93.6666C101.334 88.0666 101.734 87.9333 102.8 90.5999C103.467 92.3333 105.067 93.6666 106.534 93.6666C108.534 93.6666 109.2 94.7333 109.6 97.9333C109.867 101.4 110.667 102.467 113.067 102.733C114.934 103 116.934 102.2 118 100.733C119.734 98.5999 119.867 98.5999 120 100.467C120 103 122.934 104.6 124.8 103.267C125.467 102.733 127.6 98.8666 129.6 94.5999C133.867 85.9333 135.734 84.8666 134.934 91.6666C134 99.6666 139.734 103.133 144.667 97.6666C146 96.1999 148 95.2666 149.2 95.5333C151.734 96.3333 154.667 94.1999 157.867 89.2666C160.8 84.8666 161.867 84.5999 160.534 88.5999ZM43.2003 97.2666C39.2003 104.2 37.2003 103.133 40.8003 96.0666C43.867 89.9333 45.7337 87.6666 46.4003 89.5333C46.667 90.3333 45.2003 93.7999 43.2003 97.2666ZM49.6003 108.6C51.467 109.667 45.3337 111.533 42.1337 110.733C40.4003 110.467 40.5337 109.667 42.9337 105.8C45.867 101.4 45.867 101.4 46.9337 104.467C47.6003 106.2 48.8003 108.067 49.6003 108.6ZM61.6003 105C62.0003 106.867 61.7337 108.333 60.8003 108.333C60.0003 108.333 57.867 108.733 56.0003 109.267L52.8003 110.067L56.0003 105.933C60.1337 100.867 60.8003 100.733 61.6003 105ZM88.1337 106.067C86.0003 108.2 84.667 106.067 86.8003 103.533C88.0003 102.067 88.8003 101.933 89.067 103C89.3337 103.8 88.9337 105.267 88.1337 106.067ZM35.067 110.2C37.2003 111.933 37.2003 112.067 34.4003 112.867C28.8003 114.333 27.7337 113.933 29.3337 111C30.9337 107.933 31.867 107.8 35.067 110.2Z" fill="#F1A404"/>
<path d="M42.6679 75.2667C37.6012 78.7333 35.3345 82.7333 39.4679 81.1333C40.9345 80.4667 44.2679 79.8 46.9345 79.4C52.2679 78.6 55.4679 76.0667 54.0012 73.6667C52.6679 71.4 47.3345 72.2 42.6679 75.2667Z" fill="#F1A404"/>
<path d="M168 108.333C168 109 168.933 109.667 170 109.667C171.067 109.667 172 109 172 108.333C172 107.533 171.067 107 170 107C168.933 107 168 107.533 168 108.333Z" fill="#F1A404"/>
<path d="M104.668 117.533C103.601 119.533 105.068 121.667 107.468 121.667C108.668 121.667 109.335 120.733 109.068 119.4C108.535 116.733 105.868 115.667 104.668 117.533Z" fill="#F1A404"/>
<path d="M138 121.133C134.4 127.933 121.333 139.533 112.8 143.533C90.1333 154.333 64.5333 149.933 46.1333 132.067C41.7333 127.8 37.8667 124.6 37.6 125C36.1333 126.333 53.3333 141.267 60 144.467C83.2 155.533 109.467 152.067 127.733 135.533C136 128.2 141.867 120.067 141.067 117.667C140.8 116.867 139.467 118.467 138 121.133Z" fill="#F1A404"/>
<path d="M141.2 123.267C116.933 158.733 68.5332 163 40.6665 132.067C37.4665 128.467 33.9998 125.667 33.0665 125.933C31.9998 126.333 34.7998 130.2 39.9998 135.533C60.3998 156.733 90.3998 162.067 116.667 149.133C126.8 144.067 139.867 132.6 144.4 124.733C147.6 119 144.933 117.8 141.2 123.267Z" fill="#F1A404"/>
<path d="M73.334 122.467C73.334 123.667 74.2673 124.333 75.6007 124.067C78.934 123.4 79.334 120.333 76.134 120.333C74.534 120.333 73.334 121.133 73.334 122.467Z" fill="#F1A404"/>
<path d="M89.8671 121.267C88.9337 121.533 88.5337 122.867 88.9337 124.2C89.6004 127 94.6671 126.467 94.6671 123.667C94.6671 121.667 92.1337 120.467 89.8671 121.267Z" fill="#F1A404"/>
<path d="M55.1416 121.571C55.2833 121.616 55.4319 121.684 55.5875 121.774C55.7471 121.86 55.9011 121.963 56.0496 122.084C56.202 122.199 56.3445 122.328 56.4772 122.47C56.6142 122.616 56.7289 122.771 56.8212 122.934C57.0934 123.409 57.2509 123.903 57.2938 124.417C57.3366 124.93 57.2943 125.423 57.1669 125.897C57.0438 126.376 56.8473 126.819 56.5775 127.228C56.3159 127.635 56.0126 127.972 55.6677 128.236C55.5632 128.311 55.4297 128.381 55.2673 128.447C55.1292 128.503 54.9521 128.562 54.736 128.625C54.5238 128.683 54.27 128.727 53.9744 128.758C53.9379 128.89 53.9152 129.005 53.9062 129.101C53.9055 129.197 53.9125 129.277 53.9271 129.342C53.9422 129.418 53.9629 129.48 53.9894 129.529C54.0198 129.574 54.0586 129.623 54.1058 129.677C54.1444 129.721 54.1915 129.77 54.2469 129.823C54.3106 129.876 54.3825 129.929 54.4626 129.982L52.6906 129.848C52.7407 129.75 52.7808 129.66 52.8109 129.579C52.8413 129.507 52.8679 129.445 52.8908 129.394L52.9408 129.233C52.9433 129.188 52.9517 129.135 52.966 129.074C52.9725 129.023 52.9827 128.962 52.9966 128.891C53.0106 128.82 53.0221 128.736 53.031 128.64C52.6661 128.456 52.3583 128.255 52.1075 128.037C51.861 127.823 51.6595 127.598 51.5028 127.362C51.3422 127.13 51.2186 126.897 51.1321 126.663C51.0494 126.424 50.9919 126.194 50.9594 125.973C50.8875 125.456 50.9244 124.927 51.0701 124.387C51.3049 123.687 51.5921 123.129 51.9317 122.714C52.2795 122.298 52.6414 121.99 53.0175 121.79C53.3975 121.584 53.7724 121.47 54.1424 121.447C54.5166 121.429 54.8497 121.47 55.1416 121.571ZM53.0952 126.609C53.0465 126.515 52.9923 126.438 52.9326 126.38C52.8814 126.331 52.8204 126.296 52.7496 126.273C52.6788 126.25 52.6011 126.268 52.5167 126.326C52.5213 126.458 52.5295 126.573 52.5413 126.674C52.5613 126.774 52.5787 126.857 52.5933 126.922C52.6127 127.002 52.6316 127.072 52.6502 127.132C52.6906 127.226 52.735 127.315 52.7833 127.4C52.8269 127.469 52.8788 127.537 52.9389 127.606C53.0072 127.674 53.083 127.722 53.1664 127.749C53.2061 127.592 53.2235 127.442 53.2185 127.301C53.2217 127.159 53.2133 127.039 53.1933 126.938C53.1726 126.818 53.1399 126.708 53.0952 126.609ZM52.6252 125.551C52.8005 125.499 52.9527 125.494 53.0819 125.534C53.211 125.575 53.3241 125.627 53.421 125.689C53.5269 125.771 53.6251 125.868 53.7156 125.981C53.7861 126.11 53.8428 126.257 53.8857 126.422C53.9197 126.567 53.9402 126.74 53.9473 126.942C53.9584 127.138 53.9355 127.364 53.8785 127.618C54.0417 127.572 54.1916 127.501 54.3283 127.405C54.465 127.31 54.5832 127.217 54.6831 127.128C54.7986 127.018 54.9037 126.901 54.9981 126.776C55.1352 126.575 55.2715 126.353 55.4072 126.111C55.5428 125.869 55.6636 125.615 55.7695 125.349C55.8797 125.087 55.9692 124.822 56.038 124.552C56.1067 124.282 56.1407 124.021 56.14 123.768C56.1436 123.521 56.1045 123.288 56.0226 123.069C55.945 122.854 55.8128 122.67 55.6261 122.515C55.4222 122.34 55.2072 122.26 54.9811 122.273C54.7592 122.291 54.5413 122.361 54.3274 122.485C54.1216 122.608 53.9256 122.772 53.7391 122.975C53.5609 123.178 53.4135 123.378 53.2968 123.574C53.1995 123.734 53.1091 123.916 53.0257 124.121C52.9577 124.295 52.8847 124.502 52.8067 124.742C52.7287 124.982 52.6682 125.251 52.6252 125.551Z" fill="#F1A404"/>
<path d="M60.0809 126.365C60.2137 126.523 60.3284 126.654 60.425 126.758C60.5217 126.862 60.6022 126.948 60.6666 127.017C60.7411 127.095 60.8061 127.156 60.8615 127.201C60.917 127.247 60.9941 127.306 61.0929 127.378C61.1816 127.443 61.2915 127.528 61.4225 127.636C61.5566 127.737 61.7275 127.864 61.9352 128.018C61.7703 128.015 61.6357 128.016 61.5314 128.022C61.4272 128.027 61.3451 128.038 61.2853 128.056C61.2124 128.07 61.1617 128.091 61.1332 128.117C61.1109 128.131 61.0548 128.209 60.9651 128.35C60.8784 128.486 60.7702 128.661 60.6406 128.877C60.5191 129.091 60.3873 129.338 60.2452 129.618C60.1062 129.892 59.9717 130.178 59.8417 130.476C59.7167 130.778 59.6064 131.08 59.5108 131.381C59.4182 131.677 59.3576 131.953 59.329 132.21C59.3054 132.471 59.32 132.702 59.3726 132.902C59.4303 133.106 59.5474 133.259 59.724 133.363C59.954 133.501 60.1882 133.524 60.4265 133.43C60.6648 133.336 60.8933 133.172 61.1121 132.938C61.3359 132.709 61.5427 132.437 61.7325 132.122C61.9304 131.805 62.0984 131.497 62.2365 131.197C62.3828 130.896 62.4975 130.627 62.5806 130.39C62.6638 130.152 62.7066 129.998 62.709 129.925C62.7094 129.843 62.7043 129.744 62.6937 129.628C62.6871 129.532 62.6725 129.417 62.6499 129.283C62.6304 129.143 62.6038 128.99 62.5703 128.822C62.7234 128.955 62.8615 129.077 62.9844 129.185C63.1104 129.288 63.2147 129.378 63.2973 129.454C63.395 129.542 63.4826 129.622 63.5602 129.693C63.6378 129.765 63.734 129.856 63.8488 129.967C63.9434 130.061 64.0658 130.177 64.2159 130.316C64.371 130.46 64.5533 130.634 64.7628 130.838C64.6649 130.791 64.5775 130.765 64.5006 130.76C64.4287 130.759 64.3654 130.769 64.3107 130.79C64.2478 130.813 64.195 130.844 64.1523 130.883C64.1127 130.917 64.0265 131.044 63.8939 131.266C63.7693 131.486 63.6136 131.75 63.4269 132.06C63.2483 132.367 63.0467 132.698 62.8223 133.05C62.601 133.397 62.3737 133.715 62.1405 134.002C61.9123 134.294 61.6865 134.535 61.4629 134.723C61.2443 134.915 61.0435 135.007 60.8604 134.997C60.5923 134.984 60.3355 134.923 60.0901 134.813C59.8478 134.697 59.6168 134.554 59.397 134.382C59.1804 134.205 58.9769 134.01 58.7867 133.796C58.6046 133.581 58.4347 133.364 58.2769 133.144C58.1171 132.915 58.0361 132.625 58.0338 132.277C58.0365 131.933 58.0875 131.566 58.1866 131.177C58.2938 130.786 58.4309 130.387 58.5979 129.979C58.773 129.569 58.9505 129.182 59.1305 128.818C59.3155 128.457 59.4871 128.136 59.6454 127.853C59.8118 127.568 59.9373 127.353 60.022 127.208C60.0619 127.133 60.0901 127.053 60.1067 126.968C60.1253 126.892 60.1329 126.803 60.1293 126.702C60.1339 126.598 60.1178 126.486 60.0809 126.365Z" fill="#F1A404"/>
<path d="M67.7435 132.167C68.02 132.346 68.2523 132.496 68.4404 132.617C68.6364 132.736 68.7984 132.835 68.9264 132.915C69.0714 133.005 69.196 133.076 69.3001 133.127C69.4042 133.179 69.5485 133.243 69.7329 133.318C69.8867 133.383 70.092 133.466 70.3487 133.568C70.6133 133.666 70.9418 133.786 71.3342 133.928C71.1531 133.994 71.0048 134.065 70.8892 134.14C70.7815 134.211 70.6935 134.276 70.6251 134.333C70.5444 134.405 70.4835 134.47 70.4422 134.528C70.4088 134.583 70.3649 134.742 70.3105 135.007C70.2561 135.271 70.1992 135.589 70.14 135.961C70.083 136.327 70.0228 136.721 69.9594 137.142C69.8983 137.558 69.8448 137.952 69.7991 138.324C69.7556 138.691 69.7202 139.006 69.6929 139.271C69.6734 139.533 69.6701 139.693 69.683 139.752C69.7215 139.929 69.7444 140.045 69.7516 140.101C69.761 140.151 69.7884 140.207 69.834 140.27C69.8522 140.295 69.8824 140.334 69.9245 140.387C69.961 140.438 70.0094 140.502 70.0698 140.58C70.1358 140.662 70.2194 140.761 70.3206 140.878C70.0954 140.765 69.9024 140.666 69.7416 140.582C69.5831 140.492 69.4518 140.422 69.3476 140.37C69.2265 140.308 69.1224 140.257 69.0352 140.215C68.9503 140.167 68.8462 140.115 68.7228 140.06C68.6165 140.014 68.479 139.951 68.3104 139.87C68.1474 139.792 67.9562 139.698 67.7366 139.588C67.8808 139.567 67.999 139.542 68.0912 139.513C68.1913 139.481 68.2701 139.452 68.3274 139.426C68.3948 139.39 68.4458 139.353 68.4804 139.313C68.5117 139.265 68.55 139.187 68.5954 139.08C68.6364 138.985 68.6828 138.856 68.7346 138.694C68.7886 138.525 68.8518 138.303 68.9241 138.027L66.6009 137.007C66.5067 137.079 66.4311 137.147 66.374 137.211C66.3192 137.268 66.2762 137.321 66.245 137.37C66.2037 137.427 66.1782 137.479 66.1684 137.525C66.162 137.581 66.1608 137.65 66.1648 137.734C66.1711 137.811 66.1842 137.907 66.2042 138.022C66.2321 138.133 66.28 138.275 66.3478 138.446C66.2084 138.36 66.0652 138.275 65.9179 138.191C65.7707 138.108 65.6337 138.034 65.5069 137.969C65.3575 137.892 65.2109 137.816 65.0672 137.742C64.9234 137.667 64.7587 137.585 64.5731 137.494C64.4158 137.42 64.2319 137.334 64.0214 137.237C63.8075 137.13 63.5772 137.022 63.3306 136.911C63.5043 136.921 63.6554 136.918 63.7838 136.903C63.9145 136.881 64.0259 136.856 64.1182 136.827C64.2239 136.798 64.3173 136.766 64.3982 136.731C64.4599 136.692 64.59 136.597 64.7885 136.444C64.9891 136.285 65.2183 136.094 65.476 135.871C65.7393 135.652 66.0161 135.414 66.3062 135.158C66.602 134.905 66.8731 134.664 67.1195 134.435C67.368 134.2 67.5757 133.993 67.7424 133.815C67.909 133.636 68.0045 133.514 68.0288 133.446C68.0462 133.36 68.05 133.255 68.04 133.132C68.0313 133.023 68.0044 132.89 67.9592 132.732C67.9197 132.576 67.8478 132.388 67.7435 132.167ZM69.0674 137.289C69.1108 137.056 69.1459 136.854 69.1728 136.685C69.202 136.51 69.2268 136.365 69.2474 136.251C69.2689 136.116 69.2906 135.999 69.3124 135.901C69.3264 135.806 69.3463 135.684 69.3723 135.537C69.3916 135.407 69.4152 135.247 69.4431 135.057C69.4789 134.863 69.5183 134.631 69.5614 134.36C68.9868 134.875 68.5393 135.274 68.2189 135.557C67.9064 135.837 67.6784 136.044 67.5351 136.176C67.3637 136.33 67.2657 136.422 67.2412 136.452L69.0674 137.289Z" fill="#F1A404"/>
<path d="M73.5717 134.521C73.7425 134.617 73.8939 134.695 74.026 134.756C74.1641 134.819 74.2785 134.871 74.3691 134.91C74.478 134.956 74.5723 134.993 74.652 135.022C74.7316 135.05 74.8464 135.085 74.9963 135.124C75.1216 135.156 75.2844 135.197 75.4847 135.248C75.6911 135.301 75.9463 135.359 76.2502 135.419C76.1588 135.414 76.0632 135.459 75.9633 135.553C75.8709 135.644 75.7826 135.746 75.6983 135.86C75.5962 135.994 75.4999 136.148 75.4092 136.322C75.3289 136.478 75.2224 136.694 75.0898 136.968C74.9634 137.246 74.8313 137.548 74.6938 137.876C74.5624 138.206 74.4418 138.547 74.3321 138.898C74.2238 139.244 74.1462 139.569 74.0995 139.875C74.0588 140.182 74.0629 140.451 74.1119 140.681C74.1622 140.905 74.281 141.057 74.4682 141.138C74.7507 141.267 74.989 141.356 75.1832 141.405C75.3849 141.45 75.5518 141.472 75.6841 141.471C75.8164 141.47 75.9225 141.454 76.0024 141.421C76.0837 141.381 76.149 141.339 76.1982 141.295C76.3282 141.184 76.4702 141.033 76.6243 140.841C76.7784 140.649 76.9182 140.463 77.0437 140.281C77.1752 140.102 77.2845 139.949 77.3716 139.823C77.4586 139.696 77.5015 139.636 77.5001 139.643C77.4973 139.655 77.4783 139.727 77.4431 139.859C77.4153 139.986 77.3783 140.141 77.3319 140.323C77.2931 140.501 77.2491 140.688 77.2 140.883C77.157 141.08 77.1172 141.247 77.0806 141.385C77.0495 141.497 77.0156 141.622 76.979 141.76C76.9465 141.879 76.9092 142.02 76.867 142.183C76.8309 142.348 76.7853 142.527 76.73 142.72C76.4768 142.609 76.2344 142.508 76.0029 142.418C75.7714 142.329 75.5667 142.252 75.389 142.188C75.1806 142.114 74.9869 142.048 74.8077 141.99C74.6164 141.929 74.3936 141.859 74.1396 141.782C73.9223 141.718 73.6522 141.638 73.3294 141.543C73.0079 141.441 72.636 141.329 72.2137 141.205C72.2821 141.133 72.34 141.065 72.3873 141C72.4407 140.936 72.4822 140.883 72.5116 140.838C72.55 140.784 72.5771 140.735 72.593 140.693C72.6741 140.502 72.7609 140.256 72.8534 139.953C72.9472 139.643 73.0391 139.313 73.1291 138.961C73.2251 138.611 73.3133 138.252 73.3938 137.883C73.4817 137.51 73.5573 137.163 73.6205 136.843C73.6837 136.523 73.7318 136.242 73.7647 136C73.8038 135.76 73.8207 135.591 73.8156 135.494C73.8072 135.381 73.7926 135.266 73.7719 135.149C73.7545 135.046 73.728 134.941 73.6922 134.832C73.664 134.719 73.6238 134.616 73.5717 134.521Z" fill="#F1A404"/>
<path d="M80.0518 136.859C80.2666 136.926 80.4468 136.981 80.5926 137.021C80.7454 137.057 80.8691 137.091 80.9637 137.122C81.0775 137.157 81.1663 137.18 81.2303 137.192C81.3 137.212 81.4059 137.229 81.5479 137.243C81.6708 137.253 81.8356 137.268 82.0423 137.287C82.2553 137.308 82.527 137.33 82.8573 137.353C82.6967 137.454 82.5652 137.558 82.4628 137.664C82.3675 137.765 82.2928 137.856 82.2385 137.939C82.1695 138.038 82.1235 138.135 82.1006 138.229C82.0588 138.38 82.0142 138.589 81.9667 138.858C81.9262 139.121 81.883 139.41 81.8372 139.724C81.7913 140.039 81.7509 140.365 81.7158 140.702C81.6807 141.039 81.6505 141.36 81.6252 141.665C81.6069 141.966 81.5984 142.235 81.5997 142.473C81.6074 142.712 81.6283 142.888 81.6622 143C81.714 143.128 81.7691 143.258 81.8273 143.388C81.8811 143.497 81.9474 143.612 82.0261 143.732C82.1049 143.853 82.1985 143.957 82.3068 144.043C81.9315 143.952 81.6319 143.885 81.408 143.843L81.0627 143.777C80.9603 143.758 80.8285 143.739 80.6673 143.722C80.5316 143.709 80.3608 143.69 80.1548 143.664C79.9488 143.638 79.7005 143.611 79.41 143.582C79.5739 143.448 79.7053 143.314 79.8039 143.181C79.9026 143.048 79.9833 142.931 80.0459 142.831C80.1169 142.713 80.1681 142.597 80.1995 142.484C80.2426 142.32 80.2834 142.117 80.3218 141.873C80.3673 141.624 80.4081 141.358 80.4442 141.074C80.481 140.784 80.5117 140.49 80.5363 140.19C80.568 139.886 80.592 139.593 80.6082 139.313C80.6244 139.032 80.6316 138.776 80.6296 138.544C80.634 138.314 80.6273 138.128 80.6095 137.986C80.5991 137.898 80.5705 137.797 80.5237 137.682C80.482 137.582 80.4225 137.465 80.3451 137.331C80.2747 137.192 80.177 137.035 80.0518 136.859Z" fill="#F1A404"/>
<path d="M85.2331 137.272C85.6694 137.336 86.0471 137.386 86.3661 137.42C86.6851 137.449 86.9487 137.472 87.157 137.491C87.3979 137.51 87.5997 137.519 87.7623 137.517C87.9315 137.515 88.1625 137.505 88.4552 137.487C88.7024 137.475 89.0277 137.457 89.431 137.436C89.8343 137.408 90.3384 137.37 90.9433 137.321C90.9506 137.471 90.9546 137.618 90.9553 137.761C90.9625 137.898 90.9696 138.018 90.9766 138.123C90.9837 138.247 90.9875 138.361 90.9881 138.465C90.9886 138.576 90.9828 138.715 90.9706 138.884C90.9583 139.027 90.9364 139.209 90.905 139.429C90.88 139.643 90.839 139.899 90.7819 140.197C90.6891 139.843 90.5998 139.558 90.5141 139.34C90.4284 139.117 90.3495 138.939 90.2772 138.807C90.1984 138.655 90.1197 138.539 90.0412 138.458C89.9563 138.398 89.8552 138.346 89.7379 138.304C89.6336 138.268 89.5001 138.239 89.3373 138.215C89.181 138.191 88.9955 138.189 88.7809 138.209C88.7526 139.068 88.7333 139.764 88.7229 140.297C88.7126 140.831 88.7049 141.247 88.6999 141.546C88.6951 141.904 88.6932 142.161 88.694 142.317C88.7016 142.539 88.7384 142.758 88.8046 142.975C88.8576 143.158 88.9431 143.349 89.0612 143.548C89.1793 143.747 89.3494 143.924 89.5714 144.079L88.3805 144.047C88.2698 144.044 88.1332 144.047 87.9706 144.055C87.8339 144.064 87.6583 144.073 87.4436 144.08C87.2354 144.087 86.9915 144.103 86.7118 144.128C86.8086 143.961 86.8859 143.811 86.9438 143.675C87.0017 143.54 87.0467 143.424 87.0787 143.328C87.1172 143.212 87.1459 143.108 87.165 143.018C87.1709 142.888 87.1858 142.624 87.2099 142.228C87.2156 142.065 87.2211 141.864 87.2264 141.623C87.2382 141.382 87.2498 141.096 87.2612 140.765C87.279 140.433 87.2934 140.053 87.3043 139.623C87.3217 139.188 87.3387 138.697 87.3555 138.15C87.2382 138.115 87.1276 138.115 87.0237 138.151C86.9197 138.181 86.8288 138.221 86.751 138.271C86.6602 138.333 86.5727 138.409 86.4886 138.498C86.4045 138.606 86.3109 138.747 86.2076 138.92C86.1172 139.067 86.0141 139.263 85.8982 139.507C85.7822 139.744 85.6503 140.04 85.5024 140.394C85.468 140.016 85.4437 139.706 85.4295 139.465C85.4152 139.217 85.4045 139.025 85.3973 138.888C85.39 138.725 85.3861 138.604 85.3858 138.526C85.3854 138.454 85.3784 138.36 85.3648 138.242C85.3513 138.144 85.3344 138.017 85.3141 137.86C85.2938 137.697 85.2668 137.501 85.2331 137.272Z" fill="#F1A404"/>
<path d="M90.7833 137.615C91.0633 137.599 91.3103 137.581 91.5243 137.561C91.7383 137.542 91.9169 137.528 92.0601 137.519C92.2291 137.507 92.3719 137.495 92.4885 137.484C92.6052 137.473 92.7472 137.454 92.9146 137.429C93.057 137.414 93.2344 137.39 93.4468 137.358C93.6592 137.326 93.9102 137.288 94.1998 137.243C94.0244 137.362 93.8901 137.468 93.7967 137.561C93.7098 137.654 93.6443 137.733 93.6 137.799C93.5445 137.88 93.5139 137.95 93.5083 138.01C93.5083 138.063 93.532 138.148 93.5795 138.266C93.6269 138.384 93.6893 138.516 93.7665 138.662C93.8429 138.802 93.9334 138.949 94.038 139.105C94.1426 139.26 94.2484 139.399 94.3554 139.521C94.468 139.635 94.5778 139.727 94.6848 139.796C94.7918 139.866 94.89 139.89 94.9793 139.87C95.0686 139.85 95.1728 139.791 95.2919 139.694C95.4101 139.591 95.5292 139.467 95.6491 139.324C95.7754 139.18 95.8973 139.026 96.0148 138.863C96.1323 138.701 96.2341 138.544 96.3202 138.392C96.4127 138.24 96.4843 138.104 96.535 137.985C96.5913 137.857 96.6163 137.768 96.6098 137.716C96.5954 137.653 96.5604 137.582 96.5049 137.505C96.4574 137.44 96.3826 137.366 96.2804 137.283C96.1774 137.193 96.0374 137.096 95.8604 136.991C96.3906 136.93 96.778 136.881 97.0226 136.844L97.3799 136.79L97.7854 136.728C97.9334 136.706 98.1297 136.676 98.3743 136.639C98.6181 136.595 98.9226 136.539 99.2879 136.47C99.0578 136.676 98.8578 136.861 98.688 137.025C98.5239 137.182 98.3831 137.315 98.2656 137.425C98.1313 137.558 98.021 137.673 97.9349 137.772C97.8368 137.879 97.7032 138.044 97.5342 138.267C97.3878 138.461 97.1939 138.72 96.9525 139.047C96.7103 139.367 96.4078 139.781 96.0449 140.291C96.0457 140.771 96.0545 141.158 96.0714 141.452C96.0947 141.744 96.1168 141.975 96.1377 142.143C96.1618 142.337 96.1928 142.48 96.2306 142.573C96.2724 142.646 96.3384 142.728 96.4285 142.819C96.5041 142.9 96.6075 142.993 96.7386 143.098C96.8762 143.202 97.054 143.313 97.272 143.432C97.0532 143.412 96.8488 143.404 96.659 143.406C96.4755 143.408 96.3122 143.413 96.169 143.422C95.9992 143.428 95.8468 143.441 95.7116 143.462C95.57 143.483 95.4035 143.515 95.212 143.557C95.0462 143.596 94.8487 143.642 94.6194 143.697C94.3901 143.751 94.1234 143.821 93.8193 143.907C93.9665 143.773 94.0848 143.643 94.1741 143.518C94.2634 143.392 94.3314 143.28 94.3781 143.18C94.436 143.066 94.4754 142.962 94.4964 142.866C94.5092 142.759 94.5101 142.607 94.4988 142.412C94.4908 142.242 94.463 142.019 94.4156 141.743C94.3746 141.466 94.3114 141.117 94.2262 140.695C93.7628 140.134 93.3867 139.694 93.0979 139.376C92.8083 139.051 92.5842 138.806 92.4257 138.639C92.2383 138.45 92.1047 138.326 92.0251 138.265C91.9543 138.223 91.8593 138.172 91.7403 138.111C91.6413 138.054 91.515 137.987 91.3613 137.912C91.2004 137.831 91.0077 137.732 90.7833 137.615Z" fill="#F1A404"/>
<path d="M104.301 134.383C104.66 134.237 104.972 134.101 105.235 133.975C105.505 133.846 105.733 133.734 105.918 133.64C106.133 133.532 106.317 133.431 106.47 133.34C106.626 133.239 106.829 133.107 107.079 132.944C107.289 132.802 107.56 132.618 107.891 132.393C108.22 132.161 108.619 131.876 109.087 131.538C109.061 131.674 109.045 131.813 109.04 131.953C109.039 132.084 109.04 132.202 109.044 132.309C109.054 132.434 109.067 132.555 109.081 132.671C109.105 132.796 109.136 132.95 109.174 133.134C109.203 133.293 109.241 133.494 109.287 133.739C109.337 133.974 109.393 134.257 109.456 134.587C109.111 134.197 108.803 133.919 108.531 133.752C108.264 133.583 108.034 133.475 107.839 133.429C107.614 133.376 107.42 133.38 107.257 133.441C107.03 133.556 106.861 133.696 106.748 133.861C106.636 134.026 106.56 134.206 106.519 134.4C106.482 134.586 106.472 134.776 106.486 134.971C106.499 135.16 106.525 135.339 106.565 135.507C106.602 135.669 106.64 135.813 106.678 135.938C106.713 136.058 106.736 136.14 106.746 136.186C106.944 136.071 107.11 135.969 107.243 135.88C107.376 135.791 107.48 135.717 107.555 135.657C107.645 135.583 107.714 135.519 107.764 135.465C107.833 135.372 107.9 135.269 107.963 135.158C108.016 135.058 108.068 134.945 108.119 134.818C108.176 134.688 108.214 134.546 108.234 134.391C108.278 134.629 108.312 134.829 108.335 134.991C108.365 135.15 108.386 135.277 108.399 135.371C108.413 135.487 108.427 135.574 108.441 135.633C108.449 135.694 108.462 135.778 108.479 135.885C108.493 135.979 108.512 136.1 108.537 136.246C108.562 136.393 108.596 136.575 108.639 136.792C108.523 136.698 108.413 136.631 108.309 136.589C108.203 136.542 108.109 136.51 108.028 136.493C107.933 136.476 107.845 136.47 107.764 136.474C107.68 136.488 107.59 136.505 107.494 136.524C107.412 136.544 107.315 136.571 107.204 136.606C107.097 136.631 106.981 136.664 106.859 136.704C106.989 137.03 107.108 137.306 107.216 137.533C107.323 137.754 107.413 137.94 107.488 138.091C107.577 138.263 107.655 138.405 107.722 138.516C107.794 138.623 107.888 138.732 108.002 138.84C108.098 138.937 108.221 139.041 108.371 139.153C108.525 139.257 108.709 139.359 108.923 139.46C108.796 139.489 108.667 139.529 108.534 139.581C108.402 139.634 108.286 139.682 108.185 139.725C108.06 139.781 107.944 139.84 107.836 139.902C107.722 139.967 107.599 140.044 107.466 140.133C107.354 140.204 107.227 140.29 107.085 140.39C106.942 140.491 106.793 140.6 106.635 140.716C106.697 140.561 106.741 140.416 106.767 140.28C106.794 140.143 106.808 140.028 106.808 139.933C106.81 139.824 106.802 139.723 106.783 139.631C106.762 139.555 106.708 139.394 106.621 139.149C106.531 138.897 106.424 138.607 106.3 138.279C106.173 137.945 106.038 137.594 105.893 137.226C105.747 136.858 105.611 136.514 105.483 136.195C105.353 135.87 105.238 135.595 105.137 135.371C105.043 135.144 104.978 135.01 104.943 134.97C104.898 134.92 104.846 134.863 104.789 134.798C104.696 134.693 104.534 134.554 104.301 134.383Z" fill="#F1A404"/>
<path d="M112.879 128.451C113.165 128.25 113.478 128.093 113.817 127.981C114.159 127.859 114.51 127.818 114.871 127.858C115.229 127.893 115.586 128.022 115.94 128.244C116.292 128.461 116.619 128.805 116.922 129.276C117.172 129.658 117.338 130.101 117.418 130.603C117.501 131.096 117.518 131.594 117.47 132.098C117.421 132.602 117.313 133.083 117.145 133.54C116.975 133.991 116.764 134.364 116.513 134.66C116.36 134.839 116.169 134.993 115.938 135.119C115.709 135.236 115.459 135.325 115.187 135.386C114.917 135.438 114.635 135.458 114.34 135.448C114.051 135.434 113.767 135.383 113.49 135.295C113.21 135.202 112.946 135.071 112.7 134.904C112.459 134.732 112.253 134.518 112.083 134.26C111.936 134.049 111.801 133.797 111.678 133.504C111.557 133.201 111.46 132.884 111.388 132.551C111.319 132.21 111.284 131.858 111.284 131.495C111.285 131.124 111.341 130.759 111.452 130.401C111.56 130.038 111.727 129.693 111.956 129.367C112.186 129.032 112.494 128.726 112.879 128.451ZM113.312 133.014C113.561 133.687 113.871 134.145 114.243 134.386C114.62 134.624 115.011 134.646 115.417 134.451C115.614 134.358 115.762 134.19 115.859 133.947C115.959 133.694 116.015 133.398 116.027 133.059C116.038 132.72 116.011 132.354 115.944 131.962C115.877 131.57 115.777 131.183 115.643 130.801C115.51 130.419 115.35 130.105 115.164 129.859C114.98 129.604 114.791 129.413 114.595 129.288C114.397 129.156 114.201 129.087 114.009 129.08C113.822 129.068 113.656 129.11 113.51 129.204C113.257 129.372 113.082 129.605 112.984 129.905C112.884 130.198 112.838 130.519 112.845 130.868C112.853 131.216 112.901 131.579 112.988 131.955C113.081 132.328 113.189 132.681 113.312 133.014Z" fill="#F1A404"/>
<path d="M118.991 122.735C119.235 122.486 119.513 122.276 119.824 122.106C120.135 121.925 120.469 121.824 120.826 121.802C121.179 121.775 121.546 121.841 121.926 122.002C122.303 122.158 122.677 122.444 123.048 122.861C123.354 123.199 123.587 123.612 123.748 124.099C123.91 124.576 124.008 125.069 124.044 125.58C124.08 126.091 124.054 126.588 123.967 127.073C123.876 127.552 123.733 127.96 123.538 128.298C123.42 128.503 123.259 128.689 123.056 128.855C122.854 129.011 122.626 129.143 122.372 129.251C122.119 129.348 121.849 129.418 121.561 129.458C121.278 129.494 120.995 129.492 120.712 129.452C120.424 129.407 120.147 129.323 119.881 129.198C119.619 129.069 119.384 128.89 119.176 128.663C119 128.477 118.827 128.249 118.659 127.979C118.492 127.698 118.346 127.398 118.222 127.079C118.098 126.751 118.006 126.406 117.946 126.045C117.886 125.674 117.881 125.301 117.929 124.925C117.973 124.545 118.079 124.172 118.247 123.808C118.415 123.434 118.663 123.076 118.991 122.735ZM120.163 127.21C120.515 127.837 120.892 128.24 121.292 128.417C121.697 128.589 122.08 128.543 122.441 128.279C122.617 128.152 122.732 127.959 122.787 127.7C122.842 127.431 122.848 127.126 122.803 126.786C122.759 126.446 122.672 126.087 122.542 125.707C122.413 125.327 122.252 124.959 122.059 124.601C121.867 124.244 121.66 123.959 121.439 123.746C121.219 123.523 121.004 123.365 120.794 123.274C120.579 123.177 120.379 123.142 120.191 123.167C120.008 123.188 119.853 123.258 119.727 123.378C119.51 123.588 119.378 123.851 119.333 124.166C119.284 124.476 119.292 124.804 119.357 125.15C119.422 125.496 119.528 125.849 119.675 126.209C119.826 126.565 119.989 126.898 120.163 127.21Z" fill="#F1A404"/>
<path d="M122.419 119.318C122.566 119.149 122.692 119.001 122.798 118.872C122.904 118.744 122.992 118.637 123.061 118.554C123.141 118.453 123.208 118.367 123.262 118.295C123.328 118.217 123.393 118.106 123.455 117.962C123.521 117.812 123.593 117.655 123.67 117.489C123.742 117.318 123.822 117.147 123.911 116.975C123.999 116.803 124.098 116.65 124.208 116.516C124.281 116.426 124.381 116.319 124.508 116.193C124.634 116.067 124.783 115.949 124.953 115.839C125.126 115.723 125.319 115.626 125.529 115.547C125.74 115.467 125.966 115.43 126.207 115.433C126.447 115.437 126.7 115.493 126.965 115.6C127.229 115.708 127.502 115.89 127.784 116.148C128.204 116.533 128.547 116.941 128.815 117.373C129.082 117.805 129.264 118.247 129.36 118.698C129.459 119.144 129.47 119.596 129.393 120.057C129.316 120.517 129.143 120.972 128.874 121.423C128.681 121.78 128.49 122.128 128.3 122.469C128.221 122.615 128.135 122.767 128.04 122.924C127.949 123.076 127.859 123.229 127.768 123.381C127.672 123.528 127.578 123.668 127.485 123.8C127.392 123.932 127.304 124.051 127.22 124.157C127.251 123.981 127.265 123.83 127.263 123.703C127.265 123.571 127.261 123.465 127.253 123.385C127.238 123.29 127.219 123.213 127.196 123.155C127.152 123.094 127.062 122.98 126.928 122.812C126.813 122.673 126.648 122.475 126.433 122.22C126.218 121.965 125.923 121.622 125.548 121.192L125.085 120.658C124.796 120.329 124.552 120.072 124.353 119.887C124.158 119.695 124.001 119.55 123.882 119.452C123.741 119.341 123.632 119.269 123.554 119.237C123.488 119.209 123.401 119.191 123.293 119.182C123.202 119.182 123.085 119.193 122.942 119.214C122.798 119.225 122.624 119.259 122.419 119.318ZM126.104 120.103C126.525 120.497 126.86 120.785 127.108 120.965C127.355 121.136 127.547 121.249 127.686 121.304C127.846 121.363 127.96 121.368 128.03 121.319C128.097 121.216 128.136 121.062 128.146 120.857C128.152 120.649 128.116 120.404 128.039 120.123C127.966 119.837 127.845 119.526 127.675 119.19C127.508 118.848 127.283 118.498 126.998 118.139C126.714 117.779 126.426 117.52 126.135 117.359C125.844 117.199 125.576 117.102 125.332 117.068C125.083 117.03 124.875 117.035 124.706 117.084C124.533 117.129 124.425 117.184 124.383 117.25C124.333 117.326 124.308 117.413 124.306 117.509C124.3 117.601 124.322 117.761 124.372 117.989C124.402 118.108 124.463 118.248 124.555 118.41C124.638 118.553 124.758 118.725 124.917 118.926C125.076 119.126 125.299 119.358 125.585 119.62L126.104 120.103Z" fill="#F1A404"/>
</svg>
