<svg width="16" height="16" viewBox="0 0 16 16" fill="none" xmlns="http://www.w3.org/2000/svg">
<path d="M15 15L11.6221 11.6221M11.6221 11.6221C12.1999 11.0444 12.6583 10.3584 12.971 9.60349C13.2837 8.84856 13.4446 8.03944 13.4446 7.22231C13.4446 6.40519 13.2837 5.59606 12.971 4.84114C12.6583 4.08621 12.1999 3.40027 11.6221 2.82247C11.0444 2.24468 10.3584 1.78635 9.60349 1.47365C8.84856 1.16094 8.03944 1 7.22231 1C6.40519 1 5.59606 1.16094 4.84114 1.47365C4.08621 1.78635 3.40027 2.24468 2.82247 2.82247C1.65556 3.98938 1 5.57205 1 7.22231C1 8.87257 1.65556 10.4552 2.82247 11.6221C3.98938 12.7891 5.57205 13.4446 7.22231 13.4446C8.87257 13.4446 10.4552 12.7891 11.6221 11.6221Z" stroke="black" stroke-width="1.4" stroke-linecap="round" stroke-linejoin="round"/>
</svg>
